<mxfile host="app.diagrams.net" modified="2024-02-07T18:15:51.375Z" agent="Mozilla/5.0 (Macintosh; Intel Mac OS X 10_15_7) AppleWebKit/605.1.15 (KHTML, like Gecko) Version/15.5 Safari/605.1.15" etag="whlBfw-OQLaIYGimlf4D" version="23.1.1" type="device">
  <diagram name="Page-1" id="61d4Ecp6K8iNIc3WCDyg">
    <mxGraphModel dx="984" dy="644" grid="1" gridSize="10" guides="1" tooltips="1" connect="1" arrows="1" fold="1" page="1" pageScale="1" pageWidth="827" pageHeight="1169" background="#D9F3F8" math="0" shadow="0">
      <root>
        <mxCell id="0" />
        <mxCell id="1" parent="0" />
        <mxCell id="Xs4oKsTvRgISsXQ9Vran-1" value="" style="shape=umlLifeline;perimeter=lifelinePerimeter;whiteSpace=wrap;html=1;container=1;dropTarget=0;collapsible=0;recursiveResize=0;outlineConnect=0;portConstraint=eastwest;newEdgeStyle={&quot;curved&quot;:0,&quot;rounded&quot;:0};participant=umlActor;fillColor=none;size=43;" parent="1" vertex="1">
          <mxGeometry x="250.5" y="77" width="20" height="443" as="geometry" />
        </mxCell>
        <mxCell id="Xs4oKsTvRgISsXQ9Vran-2" value="" style="html=1;points=[[0,0,0,0,5],[0,1,0,0,-5],[1,0,0,0,5],[1,1,0,0,-5]];perimeter=orthogonalPerimeter;outlineConnect=0;targetShapes=umlLifeline;portConstraint=eastwest;newEdgeStyle={&quot;curved&quot;:0,&quot;rounded&quot;:0};fillColor=#080606;strokeColor=#000000;" parent="Xs4oKsTvRgISsXQ9Vran-1" vertex="1">
          <mxGeometry x="5" y="73" width="10" height="347" as="geometry" />
        </mxCell>
        <mxCell id="Xs4oKsTvRgISsXQ9Vran-3" value="User&lt;br&gt;&lt;span style=&quot;font-weight: normal;&quot;&gt;(Actor)&lt;/span&gt;" style="text;align=center;fontStyle=1;verticalAlign=middle;spacingLeft=3;spacingRight=3;strokeColor=none;rotatable=0;points=[[0,0.5],[1,0.5]];portConstraint=eastwest;html=1;fontFamily=Poppins;fontSource=https%3A%2F%2Ffonts.googleapis.com%2Fcss%3Ffamily%3DPoppins;" parent="1" vertex="1">
          <mxGeometry x="220.5" y="40" width="80" height="26" as="geometry" />
        </mxCell>
        <mxCell id="Xs4oKsTvRgISsXQ9Vran-4" value="" style="html=1;verticalAlign=bottom;endArrow=block;curved=0;rounded=0;" parent="1" edge="1">
          <mxGeometry x="-0.0008" relative="1" as="geometry">
            <mxPoint x="265.5" y="189.5" as="sourcePoint" />
            <mxPoint x="505.5" y="189.5" as="targetPoint" />
            <mxPoint as="offset" />
          </mxGeometry>
        </mxCell>
        <mxCell id="Xs4oKsTvRgISsXQ9Vran-5" value="book_{gym/pool}_membership&lt;br&gt;(time, date_period, transaction_id)" style="edgeLabel;html=1;align=center;verticalAlign=middle;resizable=0;points=[];fontFamily=Poppins;fontSource=https%3A%2F%2Ffonts.googleapis.com%2Fcss%3Ffamily%3DPoppins;labelBackgroundColor=#D9F3F8;" parent="Xs4oKsTvRgISsXQ9Vran-4" vertex="1" connectable="0">
          <mxGeometry x="-0.0366" y="-2" relative="1" as="geometry">
            <mxPoint x="-1" y="-19" as="offset" />
          </mxGeometry>
        </mxCell>
        <mxCell id="Xs4oKsTvRgISsXQ9Vran-6" value="&lt;font data-font-src=&quot;https://fonts.googleapis.com/css?family=Poppins&quot; face=&quot;Poppins&quot;&gt;alt&lt;/font&gt;" style="shape=umlFrame;whiteSpace=wrap;html=1;pointerEvents=0;" parent="1" vertex="1">
          <mxGeometry x="70" y="310" width="470" height="141" as="geometry" />
        </mxCell>
        <mxCell id="Xs4oKsTvRgISsXQ9Vran-7" value="" style="endArrow=none;dashed=1;html=1;rounded=0;entryX=0.999;entryY=0.518;entryDx=0;entryDy=0;entryPerimeter=0;exitX=-0.001;exitY=0.519;exitDx=0;exitDy=0;exitPerimeter=0;dashPattern=12 12;" parent="1" source="Xs4oKsTvRgISsXQ9Vran-6" target="Xs4oKsTvRgISsXQ9Vran-6" edge="1">
          <mxGeometry width="50" height="50" relative="1" as="geometry">
            <mxPoint x="110.5" y="291.9100000000001" as="sourcePoint" />
            <mxPoint x="570.5" y="290.0200000000001" as="targetPoint" />
          </mxGeometry>
        </mxCell>
        <mxCell id="Xs4oKsTvRgISsXQ9Vran-8" value="&lt;font data-font-src=&quot;https://fonts.googleapis.com/css?family=Poppins&quot; face=&quot;Poppins&quot;&gt;Gym/Pool&amp;nbsp;&lt;br&gt;Membership DB&lt;/font&gt;" style="shape=umlLifeline;perimeter=lifelinePerimeter;whiteSpace=wrap;html=1;container=1;dropTarget=0;collapsible=0;recursiveResize=0;outlineConnect=0;portConstraint=eastwest;newEdgeStyle={&quot;curved&quot;:0,&quot;rounded&quot;:0};" parent="1" vertex="1">
          <mxGeometry x="460.5" y="70" width="100" height="450" as="geometry" />
        </mxCell>
        <mxCell id="Xs4oKsTvRgISsXQ9Vran-9" value="" style="html=1;points=[[0,0,0,0,5],[0,1,0,0,-5],[1,0,0,0,5],[1,1,0,0,-5]];perimeter=orthogonalPerimeter;outlineConnect=0;targetShapes=umlLifeline;portConstraint=eastwest;newEdgeStyle={&quot;curved&quot;:0,&quot;rounded&quot;:0};fillColor=#080606;strokeColor=#000000;" parent="Xs4oKsTvRgISsXQ9Vran-8" vertex="1">
          <mxGeometry x="45" y="90" width="10" height="310" as="geometry" />
        </mxCell>
        <mxCell id="Xs4oKsTvRgISsXQ9Vran-10" value="" style="html=1;verticalAlign=bottom;endArrow=open;dashed=1;endSize=8;curved=0;rounded=0;" parent="1" edge="1">
          <mxGeometry relative="1" as="geometry">
            <mxPoint x="510.0000000000001" y="350" as="sourcePoint" />
            <mxPoint x="265.5" y="350" as="targetPoint" />
          </mxGeometry>
        </mxCell>
        <mxCell id="Xs4oKsTvRgISsXQ9Vran-11" value="membership accepted" style="edgeLabel;html=1;align=center;verticalAlign=middle;resizable=0;points=[];fontFamily=Poppins;fontSource=https%3A%2F%2Ffonts.googleapis.com%2Fcss%3Ffamily%3DPoppins;labelBackgroundColor=#D9F3F8;" parent="Xs4oKsTvRgISsXQ9Vran-10" vertex="1" connectable="0">
          <mxGeometry x="0.0342" y="-1" relative="1" as="geometry">
            <mxPoint x="-3" y="-10" as="offset" />
          </mxGeometry>
        </mxCell>
        <mxCell id="Xs4oKsTvRgISsXQ9Vran-12" value="" style="html=1;verticalAlign=bottom;endArrow=open;dashed=1;endSize=8;curved=0;rounded=0;" parent="1" edge="1">
          <mxGeometry relative="1" as="geometry">
            <mxPoint x="505.5" y="419.17" as="sourcePoint" />
            <mxPoint x="265.5" y="419.17" as="targetPoint" />
          </mxGeometry>
        </mxCell>
        <mxCell id="Xs4oKsTvRgISsXQ9Vran-13" value="membership rejected" style="edgeLabel;html=1;align=center;verticalAlign=middle;resizable=0;points=[];fontFamily=Poppins;fontSource=https%3A%2F%2Ffonts.googleapis.com%2Fcss%3Ffamily%3DPoppins;labelBackgroundColor=#D9F3F8;" parent="Xs4oKsTvRgISsXQ9Vran-12" vertex="1" connectable="0">
          <mxGeometry x="0.0342" y="-1" relative="1" as="geometry">
            <mxPoint y="-8" as="offset" />
          </mxGeometry>
        </mxCell>
        <mxCell id="Xs4oKsTvRgISsXQ9Vran-14" value="[Payment Sucessful]" style="text;align=center;fontStyle=1;verticalAlign=middle;spacingLeft=3;spacingRight=3;strokeColor=none;rotatable=0;points=[[0,0.5],[1,0.5]];portConstraint=eastwest;html=1;fontFamily=Poppins;fontSource=https%3A%2F%2Ffonts.googleapis.com%2Fcss%3Ffamily%3DPoppins;" parent="1" vertex="1">
          <mxGeometry x="108.5" y="340" width="80" height="26" as="geometry" />
        </mxCell>
        <mxCell id="Xs4oKsTvRgISsXQ9Vran-15" value="[Payment Unsucessful]" style="text;align=center;fontStyle=1;verticalAlign=middle;spacingLeft=3;spacingRight=3;strokeColor=none;rotatable=0;points=[[0,0.5],[1,0.5]];portConstraint=eastwest;html=1;fontFamily=Poppins;fontSource=https%3A%2F%2Ffonts.googleapis.com%2Fcss%3Ffamily%3DPoppins;" parent="1" vertex="1">
          <mxGeometry x="120" y="410" width="80" height="26" as="geometry" />
        </mxCell>
        <mxCell id="Xs4oKsTvRgISsXQ9Vran-16" value="" style="shape=umlLifeline;perimeter=lifelinePerimeter;whiteSpace=wrap;html=1;container=1;dropTarget=0;collapsible=0;recursiveResize=0;outlineConnect=0;portConstraint=eastwest;newEdgeStyle={&quot;curved&quot;:0,&quot;rounded&quot;:0};participant=umlActor;fillColor=none;size=43;" parent="1" vertex="1">
          <mxGeometry x="720" y="77" width="20" height="443" as="geometry" />
        </mxCell>
        <mxCell id="Xs4oKsTvRgISsXQ9Vran-17" value="" style="html=1;points=[[0,0,0,0,5],[0,1,0,0,-5],[1,0,0,0,5],[1,1,0,0,-5]];perimeter=orthogonalPerimeter;outlineConnect=0;targetShapes=umlLifeline;portConstraint=eastwest;newEdgeStyle={&quot;curved&quot;:0,&quot;rounded&quot;:0};fillColor=#080606;strokeColor=#000000;" parent="Xs4oKsTvRgISsXQ9Vran-16" vertex="1">
          <mxGeometry x="5" y="96" width="10" height="124" as="geometry" />
        </mxCell>
        <mxCell id="Xs4oKsTvRgISsXQ9Vran-18" value="Gym/Pool Instructor&lt;br&gt;&lt;span style=&quot;font-weight: normal;&quot;&gt;(Actor)&lt;/span&gt;" style="text;align=center;fontStyle=1;verticalAlign=middle;spacingLeft=3;spacingRight=3;strokeColor=none;rotatable=0;points=[[0,0.5],[1,0.5]];portConstraint=eastwest;html=1;fontFamily=Poppins;fontSource=https%3A%2F%2Ffonts.googleapis.com%2Fcss%3Ffamily%3DPoppins;" parent="1" vertex="1">
          <mxGeometry x="690" y="39" width="80" height="26" as="geometry" />
        </mxCell>
        <mxCell id="Xs4oKsTvRgISsXQ9Vran-19" value="" style="html=1;verticalAlign=bottom;endArrow=block;curved=0;rounded=0;" parent="1" edge="1">
          <mxGeometry x="-0.0008" relative="1" as="geometry">
            <mxPoint x="725" y="200.5000000000001" as="sourcePoint" />
            <mxPoint x="515.5" y="200.5000000000001" as="targetPoint" />
            <mxPoint as="offset" />
          </mxGeometry>
        </mxCell>
        <mxCell id="Xs4oKsTvRgISsXQ9Vran-20" value="fetch_data()" style="edgeLabel;html=1;align=center;verticalAlign=middle;resizable=0;points=[];fontFamily=Poppins;fontSource=https%3A%2F%2Ffonts.googleapis.com%2Fcss%3Ffamily%3DPoppins;labelBackgroundColor=#D9F3F8;" parent="Xs4oKsTvRgISsXQ9Vran-19" vertex="1" connectable="0">
          <mxGeometry x="-0.0366" y="-2" relative="1" as="geometry">
            <mxPoint x="-1" y="-8" as="offset" />
          </mxGeometry>
        </mxCell>
        <mxCell id="Xs4oKsTvRgISsXQ9Vran-21" value="" style="html=1;verticalAlign=bottom;endArrow=open;dashed=1;endSize=8;curved=0;rounded=0;" parent="1" edge="1">
          <mxGeometry relative="1" as="geometry">
            <mxPoint x="510.1666666666665" y="240" as="sourcePoint" />
            <mxPoint x="725" y="240" as="targetPoint" />
          </mxGeometry>
        </mxCell>
        <mxCell id="Xs4oKsTvRgISsXQ9Vran-22" value="return_data" style="edgeLabel;html=1;align=center;verticalAlign=middle;resizable=0;points=[];fontFamily=Poppins;fontSource=https%3A%2F%2Ffonts.googleapis.com%2Fcss%3Ffamily%3DPoppins;labelBackgroundColor=#D9F3F8;" parent="Xs4oKsTvRgISsXQ9Vran-21" vertex="1" connectable="0">
          <mxGeometry x="0.0342" y="-1" relative="1" as="geometry">
            <mxPoint y="-8" as="offset" />
          </mxGeometry>
        </mxCell>
        <mxCell id="Xs4oKsTvRgISsXQ9Vran-25" value="" style="html=1;verticalAlign=bottom;endArrow=block;curved=0;rounded=0;" parent="1" edge="1">
          <mxGeometry x="-0.0008" relative="1" as="geometry">
            <mxPoint x="725" y="280.0000000000001" as="sourcePoint" />
            <mxPoint x="515.5" y="280.0000000000001" as="targetPoint" />
            <mxPoint as="offset" />
          </mxGeometry>
        </mxCell>
        <mxCell id="Xs4oKsTvRgISsXQ9Vran-26" value="update_status&lt;br&gt;(after verification of transaction)" style="edgeLabel;html=1;align=center;verticalAlign=middle;resizable=0;points=[];fontFamily=Poppins;fontSource=https%3A%2F%2Ffonts.googleapis.com%2Fcss%3Ffamily%3DPoppins;labelBackgroundColor=#D9F3F8;" parent="Xs4oKsTvRgISsXQ9Vran-25" vertex="1" connectable="0">
          <mxGeometry x="-0.0366" y="-2" relative="1" as="geometry">
            <mxPoint x="-1" y="-13" as="offset" />
          </mxGeometry>
        </mxCell>
      </root>
    </mxGraphModel>
  </diagram>
</mxfile>
